<?xml version="1.0" encoding="utf-8"?>
<!-- Generator: Adobe Illustrator 16.0.0, SVG Export Plug-In . SVG Version: 6.00 Build 0)  -->
<!DOCTYPE svg PUBLIC "-//W3C//DTD SVG 1.1//EN" "http://www.w3.org/Graphics/SVG/1.1/DTD/svg11.dtd">
<svg version="1.1" id="Layer_1" xmlns="http://www.w3.org/2000/svg" xmlns:xlink="http://www.w3.org/1999/xlink" x="0px" y="0px"
	 width="24px" height="44.999px" viewBox="0 0 24 44.999" enable-background="new 0 0 24 44.999" xml:space="preserve">
<g>
	<g>
		<path fill="#767482" d="M9.929,19.012c-0.023,0-0.047-0.003-0.07-0.009c-0.083-0.021-0.154-0.075-0.193-0.15L7.71,15.188
			c-0.063-0.117-0.041-0.263,0.055-0.355l1.283-1.252c0.057-0.057,0.137-0.099,0.215-0.086c0.081,0.002,0.158,0.036,0.213,0.095
			l3.07,3.268c0.059,0.063,0.088,0.15,0.079,0.237c-0.009,0.088-0.056,0.166-0.128,0.215l-2.398,1.65
			C10.049,18.993,9.989,19.012,9.929,19.012z M8.345,15.104l1.691,3.17l1.832-1.261l-2.621-2.79L8.345,15.104z"/>
		<path fill="#767482" d="M14.724,19.012c-0.06,0-0.119-0.019-0.17-0.053l-2.396-1.65c-0.072-0.049-0.119-0.127-0.129-0.215
			c-0.01-0.087,0.02-0.174,0.08-0.237l3.069-3.268c0.056-0.059,0.132-0.093,0.212-0.095c0.079-0.016,0.158,0.029,0.217,0.086
			l1.282,1.252c0.096,0.093,0.118,0.238,0.056,0.355l-1.955,3.665c-0.041,0.075-0.111,0.13-0.194,0.15
			C14.771,19.009,14.748,19.012,14.724,19.012z M12.784,17.013l1.834,1.261l1.69-3.17l-0.903-0.881L12.784,17.013z"/>
		<path fill="#767482" d="M20.741,21.363H3.911c-0.405,0-0.766-0.209-1.017-0.59c-0.51-0.776-0.449-2.082,0.161-3.494
			c1.043-2.41,4.754-2.529,4.911-2.533l0.015,0.6c-0.035,0.002-3.484,0.115-4.375,2.172c-0.624,1.443-0.518,2.458-0.211,2.926
			c0.097,0.146,0.264,0.32,0.516,0.32h16.83c0.253,0,0.42-0.174,0.516-0.32c0.309-0.468,0.414-1.482-0.211-2.926
			c-0.891-2.062-4.34-2.17-4.374-2.172l0.015-0.6c0.158,0.004,3.868,0.123,4.91,2.533c0.611,1.412,0.672,2.718,0.162,3.494
			C21.509,21.154,21.147,21.363,20.741,21.363z"/>
		
			<rect x="10.82" y="17.686" transform="matrix(0.9875 0.1578 -0.1578 0.9875 3.1984 -1.5119)" fill="#767482" width="0.6" height="3.399"/>
		
			<rect x="11.833" y="19.086" transform="matrix(0.1572 0.9876 -0.9876 0.1572 30.5505 2.9743)" fill="#767482" width="3.399" height="0.599"/>
		<path fill="#767482" d="M12.358,11.209c-0.494,0-1.463-0.233-1.463-0.775c0-0.165,0.135-0.299,0.3-0.299
			c0.144,0,0.263,0.1,0.293,0.233c0.103,0.091,0.501,0.241,0.87,0.241s0.768-0.15,0.87-0.241c0.03-0.134,0.149-0.233,0.293-0.233
			c0.165,0,0.3,0.134,0.3,0.299C13.821,10.976,12.853,11.209,12.358,11.209z"/>
		<g>
			<circle fill="#767482" cx="10.729" cy="7.877" r="0.448"/>
			<circle fill="#767482" cx="13.988" cy="7.877" r="0.448"/>
		</g>
		<path fill="#767482" d="M12.462,13.59h-0.207c-2.498,0-4.529-2.031-4.529-4.529v-2.59c0-0.639,0.566-1.158,1.265-1.158h2.556
			c0.283,0,0.513-0.23,0.513-0.514c0-0.165,0.134-0.299,0.3-0.299s0.3,0.134,0.3,0.299c0,0.283,0.229,0.514,0.513,0.514h2.556
			c0.698,0,1.265,0.52,1.265,1.158v2.59C16.991,11.559,14.96,13.59,12.462,13.59z M8.99,5.912c-0.366,0-0.665,0.25-0.665,0.559v2.59
			c0,2.167,1.763,3.93,3.93,3.93h0.207c2.167,0,3.93-1.763,3.93-3.93v-2.59c0-0.309-0.299-0.559-0.665-0.559h-2.556
			c-0.32,0-0.609-0.137-0.813-0.354c-0.203,0.217-0.492,0.354-0.813,0.354H8.99z"/>
		<path fill="#767482" d="M6.14,15.734c-0.166,0-0.3-0.134-0.3-0.299V6.518C5.84,2.924,8.765,0,12.358,0s6.519,2.924,6.519,6.518
			v5.875c0,0.166-0.134,0.301-0.3,0.301s-0.3-0.135-0.3-0.301V6.518c0-3.264-2.655-5.918-5.919-5.918S6.439,3.254,6.439,6.518v8.918
			C6.439,15.601,6.306,15.734,6.14,15.734z"/>
		<path fill="#767482" d="M18.577,13.957c-0.166,0-0.3-0.134-0.3-0.299c0-0.166,0.134-0.331,0.3-0.331s0.3,0.104,0.3,0.269v0.063
			C18.877,13.823,18.743,13.957,18.577,13.957z"/>
	</g>
	<g>
		<path fill="#B56078" d="M24,39.954V23.249c0-1.796-1.479-3.25-3.306-3.25H3.304C1.479,19.999,0,21.453,0,23.249v16.705
			l11.999,5.045L24,39.954z"/>
		<path fill="#FDF5F8" d="M11.727,30.585l0.174-1.27h-1.306l0.346-2.533H9.8l-0.348,2.533H8.085l0.346-2.533H7.29l-0.348,2.533
			H5.541l-0.174,1.27H6.77l-0.235,1.719H5.132l-0.174,1.27H6.36l-0.344,2.504h1.142l0.343-2.504H8.87l-0.344,2.504h1.142
			l0.343-2.504h1.307l0.174-1.27h-1.307l0.236-1.719H11.727z M9.044,32.304H7.675l0.236-1.719h1.368L9.044,32.304z"/>
		<!-- <text transform="matrix(1 0 0 1 12.2129 35.5713)" fill="#FFFFFF" font-family="'Arial-BoldMT'" font-size="12">x</text> -->
	</g>
</g>
</svg>
