<?xml version="1.0" encoding="utf-8"?>
<!-- Generator: Adobe Illustrator 16.0.0, SVG Export Plug-In . SVG Version: 6.00 Build 0)  -->
<!DOCTYPE svg PUBLIC "-//W3C//DTD SVG 1.1//EN" "http://www.w3.org/Graphics/SVG/1.1/DTD/svg11.dtd">
<svg version="1.1" id="Layer_1" xmlns="http://www.w3.org/2000/svg" xmlns:xlink="http://www.w3.org/1999/xlink" x="0px" y="0px"
	 width="24px" height="44.999px" viewBox="0 0 24 44.999" enable-background="new 0 0 24 44.999" xml:space="preserve">
<g>
	<g>
		<path fill="#767482" d="M9.603,18.811c-0.023,0-0.048-0.002-0.071-0.008c-0.083-0.02-0.153-0.074-0.193-0.15l-1.955-3.665
			c-0.063-0.118-0.04-0.263,0.055-0.356l1.282-1.252c0.057-0.055,0.132-0.084,0.21-0.084c0.002,0,0.004,0,0.007,0
			c0.08,0.001,0.156,0.035,0.212,0.094l3.07,3.268c0.06,0.064,0.089,0.15,0.079,0.238c-0.009,0.086-0.056,0.165-0.128,0.215
			l-2.397,1.648C9.722,18.793,9.663,18.811,9.603,18.811z M8.019,14.904l1.69,3.17l1.833-1.262l-2.621-2.79L8.019,14.904z"/>
		<path fill="#767482" d="M14.397,18.811c-0.061,0-0.119-0.018-0.17-0.053l-2.397-1.648c-0.072-0.05-0.119-0.129-0.128-0.215
			c-0.01-0.088,0.02-0.174,0.079-0.238l3.07-3.268c0.056-0.059,0.132-0.093,0.212-0.094c0.113-0.016,0.158,0.028,0.217,0.084
			l1.282,1.252c0.095,0.094,0.117,0.238,0.055,0.356l-1.955,3.665c-0.04,0.076-0.11,0.131-0.193,0.15
			C14.445,18.809,14.421,18.811,14.397,18.811z M12.458,16.813l1.833,1.262l1.69-3.17l-0.902-0.882L12.458,16.813z"/>
		<path fill="#767482" d="M20.415,21.164H3.585c-0.405,0-0.767-0.21-1.017-0.591c-0.51-0.776-0.449-2.082,0.161-3.495
			c1.042-2.408,4.753-2.527,4.91-2.531l0.016,0.6c-0.035,0-3.486,0.113-4.375,2.17c-0.624,1.444-0.519,2.459-0.211,2.928
			c0.097,0.146,0.264,0.32,0.516,0.32h16.83c0.252,0,0.419-0.175,0.516-0.32c0.308-0.469,0.413-1.483-0.211-2.928
			c-0.891-2.061-4.34-2.17-4.375-2.17l0.016-0.6c0.157,0.004,3.868,0.123,4.91,2.531c0.61,1.413,0.671,2.719,0.161,3.495
			C21.182,20.954,20.82,21.164,20.415,21.164z"/>
		
			<rect x="10.494" y="17.486" transform="matrix(0.9874 0.1581 -0.1581 0.9874 3.168 -1.4648)" fill="#767482" width="0.599" height="3.399"/>
		
			<rect x="11.507" y="18.886" transform="matrix(0.1572 0.9876 -0.9876 0.1572 30.0779 3.1277)" fill="#767482" width="3.399" height="0.599"/>
		<path fill="#767482" d="M12.136,13.391h-0.208c-2.498,0-4.529-2.032-4.529-4.529V5.924h0.6v2.938c0,2.166,1.763,3.93,3.93,3.93
			h0.208c2.167,0,3.93-1.764,3.93-3.93V4.482h0.6v4.379C16.665,11.358,14.634,13.391,12.136,13.391z"/>
		<path fill="#767482" d="M12.031,11.059c-0.611,0-1.704-0.292-1.704-0.875c0-0.165,0.134-0.299,0.3-0.299s0.3,0.134,0.3,0.299
			c0.063,0.053,0.6,0.275,1.104,0.275s1.043-0.224,1.119-0.336c0-0.165,0.128-0.27,0.293-0.27c0.166,0,0.293,0.165,0.293,0.33
			C13.736,10.767,12.644,11.059,12.031,11.059z"/>
		<g>
			<circle fill="#767482" cx="10.402" cy="7.084" r="0.448"/>
			<circle fill="#767482" cx="13.662" cy="7.084" r="0.448"/>
		</g>
		<path fill="#767482" d="M7.85,10.281c-1.294,0-2.347-1.076-2.347-2.398V3.465c0-1.166,1.046-2.13,2.382-2.246
			C8.023,0.525,8.653,0,9.407,0h7.063c0.166,0,0.3,0.134,0.3,0.299c0,0.166-0.134,0.301-0.3,0.301H9.407
			c-0.524,0-0.951,0.407-0.951,0.908c0,0.165-0.134,0.299-0.3,0.299c-1.132,0-2.054,0.744-2.054,1.658v4.418
			c0,0.991,0.784,1.799,1.747,1.799c0.166,0,0.3,0.134,0.3,0.299C8.149,10.146,8.016,10.281,7.85,10.281z"/>
		<g>
			<path fill="#767482" d="M7.698,6.225c-0.166,0-0.3-0.135-0.3-0.301c0-0.961,0.901-1.742,2.009-1.742h6.904
				c0.875,0,1.588-0.761,1.588-1.695V1.529c0-0.166,0.134-0.301,0.3-0.301s0.3,0.135,0.3,0.301v0.957
				c0,1.266-0.981,2.295-2.188,2.295H9.407c-0.777,0-1.409,0.514-1.409,1.143C7.998,6.09,7.864,6.225,7.698,6.225z"/>
		</g>
		<path fill="#767482" d="M18.199,0.66c-0.166,0-0.3-0.134-0.3-0.299c0-0.166,0.134-0.331,0.3-0.331s0.3,0.104,0.3,0.269v0.063
			C18.499,0.526,18.365,0.66,18.199,0.66z"/>
	</g>
	<g>
		<path fill="#B56078" d="M24,39.954V23.249c0-1.795-1.479-3.25-3.305-3.25H3.305C1.479,19.999,0,21.454,0,23.249v16.705l12,5.045
			L24,39.954z"/>
		<path fill="#FDF5F8" d="M11.727,30.585l0.174-1.27h-1.306l0.347-2.533H9.801l-0.348,2.533H8.085l0.347-2.533H7.291l-0.348,2.533
			H5.541l-0.174,1.27H6.77l-0.235,1.719H5.132l-0.174,1.27H6.36l-0.343,2.504h1.141l0.344-2.504H8.87l-0.343,2.504h1.141
			l0.344-2.504h1.306l0.174-1.27h-1.306l0.235-1.719H11.727z M9.044,32.304H7.676l0.235-1.719h1.368L9.044,32.304z"/>
		<!-- <text transform="matrix(1 0 0 1 12.2129 35.5713)" fill="#FFFFFF" font-family="'Arial-BoldMT'" font-size="12">x</text> -->
	</g>
</g>
</svg>
